HIERARCHY
ROOT Hips
{
	OFFSET -0.001795 -0.223333 0.028219
	CHANNELS 6 Xposition Yposition Zposition Zrotation Yrotation Xrotation 
	JOINT LeftUpLeg
	{
		OFFSET 0.069520 -0.091406 -0.006815
		CHANNELS 3 Zrotation Yrotation Xrotation
		JOINT LeftLeg
		{
			OFFSET 0.034277 -0.375199 -0.004496
			CHANNELS 3 Zrotation Yrotation Xrotation
			JOINT LeftFoot
			{
				OFFSET -0.013596 -0.397961 -0.043693
				CHANNELS 3 Zrotation Yrotation Xrotation
				JOINT LeftToe
				{
					OFFSET 0.026358 -0.055791 0.119288
					CHANNELS 3 Zrotation Yrotation Xrotation
					End Site
					{
						OFFSET 0.000000 0.000000 0.000000
					}
				}
			}
		}
	}
	JOINT RightUpLeg
	{
		OFFSET -0.067670 -0.090522 -0.004320
		CHANNELS 3 Zrotation Yrotation Xrotation
		JOINT RightLeg
		{
			OFFSET -0.038290 -0.382569 -0.008850
			CHANNELS 3 Zrotation Yrotation Xrotation
			JOINT RightFoot
			{
				OFFSET 0.015774 -0.398415 -0.042312
				CHANNELS 3 Zrotation Yrotation Xrotation
				JOINT RightToe
				{
					OFFSET -0.025372 -0.048144 0.123348
					CHANNELS 3 Zrotation Yrotation Xrotation
					End Site
					{
						OFFSET 0.000000 0.000000 0.000000
					}
				}
			}
		}
	}
	JOINT Spine
	{
		OFFSET -0.002533 0.108963 -0.026696
		CHANNELS 3 Zrotation Yrotation Xrotation
		JOINT Spine1
		{
			OFFSET 0.005487 0.135180 0.001092
			CHANNELS 3 Zrotation Yrotation Xrotation
			JOINT Spine2
			{
				OFFSET 0.001457 0.052922 0.025425
				CHANNELS 3 Zrotation Yrotation Xrotation
				JOINT Neck
				{
					OFFSET -0.002778 0.213870 -0.042857
					CHANNELS 3 Zrotation Yrotation Xrotation
					JOINT Head
					{
						OFFSET 0.005152 0.064970 0.051349
						CHANNELS 3 Zrotation Yrotation Xrotation
						End Site
						{
							OFFSET 0.000000 0.000000 0.000000
						}
					}
				}
				JOINT LeftShoulder
				{
					OFFSET 0.078845 0.121749 -0.034090
					CHANNELS 3 Zrotation Yrotation Xrotation
					JOINT LeftArm
					{
						OFFSET 0.090977 0.030469 -0.008868
						CHANNELS 3 Zrotation Yrotation Xrotation
						JOINT LeftForeArm
						{
							OFFSET 0.259612 -0.012772 -0.027456
							CHANNELS 3 Zrotation Yrotation Xrotation
							JOINT LeftHand
							{
								OFFSET 0.249234 0.008986 -0.001171
								CHANNELS 3 Zrotation Yrotation Xrotation
								End Site
								{
									OFFSET 0.000000 0.000000 0.000000
								}
							}
						}
					}
				}
				JOINT RightShoulder
				{
					OFFSET -0.081759 0.118833 -0.038615
					CHANNELS 3 Zrotation Yrotation Xrotation
					JOINT RightArm
					{
						OFFSET -0.096012 0.032551 -0.009143
						CHANNELS 3 Zrotation Yrotation Xrotation
						JOINT RightForeArm
						{
							OFFSET -0.253742 -0.013329 -0.021401
							CHANNELS 3 Zrotation Yrotation Xrotation
							JOINT RightHand
							{
								OFFSET -0.255298 0.007772 -0.005559
								CHANNELS 3 Zrotation Yrotation Xrotation
								End Site
								{
									OFFSET 0.000000 0.000000 0.000000
								}
							}
						}
					}
				}
			}
		}
	}
}
MOTION
Frames: 17
Frame Time: 0.050000
0.000000 0.937599 0.000000 -3.323338 -13.448749 9.068307 9.183347 0.191726 -17.460018 -6.037568 1.133916 7.307542 11.825433 22.225073 12.438054 0.000000 0.000000 0.000000 -5.470304 1.972020 -21.671507 7.447978 -0.586766 9.564114 -5.580283 -16.827632 11.078102 0.000000 0.000000 0.000000 0.608365 -0.362880 27.209677 -5.696515 1.710569 -23.178901 -3.965848 5.345010 26.784081 12.468076 -5.813414 -26.502559 0.000000 0.000000 0.000000 -13.482027 -24.760026 12.008500 -38.352603 -34.574872 4.086995 -4.360156 -48.668395 4.773390 0.000000 0.000000 0.000000 27.434732 10.639190 4.294466 49.670286 26.278589 3.760558 13.329842 38.382340 6.268926 0.000000 0.000000 0.000000 
0.005037 0.936392 -0.008612 -4.581257 -15.114915 9.976663 10.252174 0.550402 -19.045423 -6.558999 1.391503 8.948499 12.644752 23.384694 12.332808 0.000000 0.000000 0.000000 -3.841440 2.310690 -22.359576 6.650720 -0.428914 8.788179 -4.748360 -15.908664 12.522767 0.000000 0.000000 0.000000 -0.421347 0.105148 28.605041 -5.129552 1.544746 -22.691179 -3.489333 4.381563 26.098889 12.197083 -5.898608 -25.998213 0.000000 0.000000 0.000000 -14.271055 -24.044366 12.292878 -36.857459 -34.378102 3.712405 -2.787159 -50.086339 4.422637 0.000000 0.000000 0.000000 25.579697 9.677389 2.959500 52.207951 25.644077 4.093071 14.791249 38.658378 6.651715 0.000000 0.000000 0.000000 
0.009929 0.935530 -0.018038 -5.003531 -14.853863 10.602099 10.542263 0.672866 -20.440375 -6.266474 1.351386 9.554339 12.862051 23.560467 13.112921 0.000000 0.000000 0.000000 -3.778327 2.444195 -23.345432 7.118328 -0.495239 8.488606 -4.363812 -15.598808 13.992284 0.000000 0.000000 0.000000 -0.023254 -0.023868 29.175928 -4.658154 1.415484 -21.834664 -4.696365 3.695256 25.552182 11.298664 -6.224440 -21.699197 0.000000 0.000000 0.000000 -16.676602 -25.887440 13.983997 -31.179234 -34.488920 2.599000 3.072101 -45.425523 1.224669 0.000000 0.000000 0.000000 27.326327 9.818195 2.834530 52.559979 24.198961 3.572928 12.763363 38.772181 5.966135 0.000000 0.000000 0.000000 
0.014204 0.936526 -0.028336 -5.670058 -16.222012 11.715535 11.791640 1.147293 -21.992320 -6.979320 1.600309 10.002204 13.186427 23.592742 14.775655 0.000000 0.000000 0.000000 -3.607767 2.759549 -24.999246 7.222533 -0.469492 8.184487 -3.720265 -14.907087 14.625603 0.000000 0.000000 0.000000 -0.331257 0.230999 29.924919 -5.870775 1.691083 -22.056929 -3.864334 2.154788 26.148831 10.817210 -6.424882 -20.767652 0.000000 0.000000 0.000000 -18.662846 -26.398312 15.528469 -26.216953 -34.480280 1.484946 7.469821 -43.762390 -0.603503 0.000000 0.000000 0.000000 28.281897 9.611875 1.680622 50.986098 23.466244 3.286680 16.311826 38.691633 6.909266 0.000000 0.000000 0.000000 
0.017054 0.937547 -0.038308 -6.593772 -17.284264 12.477027 12.349705 1.498496 -23.215435 -6.227127 1.495960 10.659960 13.835852 24.097889 16.312406 0.000000 0.000000 0.000000 -4.000315 2.995388 -26.509598 8.680403 -0.608487 9.674409 -4.105172 -15.819235 14.908728 0.000000 0.000000 0.000000 -1.166341 0.622029 30.413642 -4.589440 1.342232 -20.531187 -4.390561 2.068356 25.974190 9.836626 -5.957422 -20.060332 0.000000 0.000000 0.000000 -18.675000 -26.677848 15.841098 -22.884994 -33.605372 0.739664 14.043323 -40.256873 -3.042071 0.000000 0.000000 0.000000 28.241704 10.619871 2.124729 51.084189 22.869406 3.090094 17.024786 40.720008 7.529906 0.000000 0.000000 0.000000 
0.018130 0.937865 -0.046797 -7.601722 -18.583778 13.896750 13.955636 2.149706 -24.312196 -6.731384 1.600587 9.771989 13.716778 23.674445 16.701517 0.000000 0.000000 0.000000 -4.785288 3.065806 -27.143723 8.665747 -0.552462 11.338689 -4.329231 -16.030926 13.398272 0.000000 0.000000 0.000000 -1.241354 0.870111 31.580611 -4.368648 1.239702 -22.341598 -4.017174 2.405899 27.094394 9.786168 -5.922067 -20.804784 0.000000 0.000000 0.000000 -20.086490 -25.751123 15.999512 -19.547346 -31.464371 -0.291764 15.753302 -40.173690 -3.705755 0.000000 0.000000 0.000000 28.258137 11.363486 2.519959 50.481300 21.961223 2.537827 18.301416 41.641819 8.193566 0.000000 0.000000 0.000000 
0.017242 0.935819 -0.053322 -7.897022 -19.631952 14.851900 14.838839 2.643606 -25.229641 -6.391774 1.486071 8.972127 14.279235 24.035936 18.023513 0.000000 0.000000 0.000000 -4.877650 3.144709 -27.235070 7.773256 -0.366586 12.543210 -4.749058 -16.834135 13.009112 0.000000 0.000000 0.000000 -0.943402 0.903691 31.891615 -5.707082 1.539119 -21.185439 -3.563626 2.795732 25.841452 8.979362 -5.140954 -22.030931 0.000000 0.000000 0.000000 -20.753089 -24.914187 15.769528 -18.513728 -30.025974 -0.583070 17.726097 -38.593217 -4.226833 0.000000 0.000000 0.000000 27.361294 11.222764 2.427354 51.877326 21.159048 2.420373 18.715077 42.486214 8.505452 0.000000 0.000000 0.000000 
0.014319 0.933444 -0.059122 -7.342876 -19.071880 15.049501 15.110466 2.856000 -26.670607 -6.684782 1.597950 9.828317 13.811022 23.448854 17.860366 0.000000 0.000000 0.000000 -5.661492 2.929202 -26.706280 7.471280 -0.323312 13.389853 -4.782694 -16.449324 11.622503 0.000000 0.000000 0.000000 -0.796024 0.919232 33.314866 -5.957935 1.606573 -21.328536 -3.515375 3.967596 25.735733 10.959974 -5.967383 -22.706515 0.000000 0.000000 0.000000 -21.093089 -25.277843 15.529569 -18.371697 -28.474497 -0.677260 17.317830 -37.762311 -4.106637 0.000000 0.000000 0.000000 28.231170 11.057753 3.028907 50.762572 21.601728 2.337415 17.334352 42.371339 8.190593 0.000000 0.000000 0.000000 
0.009519 0.930396 -0.065720 -6.754453 -18.378601 15.714426 15.785253 3.137376 -28.046602 -7.622860 1.820008 10.022533 13.681827 23.328877 17.956341 0.000000 0.000000 0.000000 -6.721749 2.803603 -27.101374 7.512299 -0.335345 14.476473 -4.215902 -14.731942 9.496662 0.000000 0.000000 0.000000 -0.771222 0.919030 34.154035 -5.954974 1.629339 -20.511688 -3.315098 4.872906 24.175289 11.640384 -6.099584 -22.404780 0.000000 0.000000 0.000000 -22.543342 -24.574248 15.046565 -18.511665 -27.354674 -0.706512 17.130559 -36.787871 -3.935468 0.000000 0.000000 0.000000 29.387631 10.881349 3.511399 49.150917 21.320021 2.116757 15.974961 41.644912 7.646529 0.000000 0.000000 0.000000 
0.002782 0.927557 -0.074495 -5.973713 -17.591938 15.388187 16.591293 3.429325 -29.125374 -8.801580 2.223827 11.483945 13.977224 23.767228 18.480363 0.000000 0.000000 0.000000 -8.480098 2.565841 -27.558669 9.027762 -0.619479 16.126733 -4.514713 -14.450343 6.980590 0.000000 0.000000 0.000000 -0.479213 0.823974 35.445771 -6.491487 1.788628 -20.507173 -2.835580 4.947822 24.677308 10.398742 -4.898953 -24.739915 0.000000 0.000000 0.000000 -22.198908 -23.926202 14.340989 -18.796143 -27.323113 -0.684802 18.487277 -35.665114 -4.239260 0.000000 0.000000 0.000000 29.265463 11.496262 4.275982 48.679819 23.176737 2.662264 14.767447 40.746246 7.110108 0.000000 0.000000 0.000000 
-0.006532 0.923009 -0.085097 -5.380059 -16.662154 16.060676 16.765095 3.564382 -30.703356 -8.147869 2.007744 11.593710 13.305716 22.864377 18.976914 0.000000 0.000000 0.000000 -10.060100 2.590623 -30.568871 9.207430 -0.690034 19.596460 -5.872055 -16.817967 5.034386 0.000000 0.000000 0.000000 -0.556699 0.839541 36.705344 -4.575344 1.304880 -20.673975 -3.500331 7.011038 24.241911 11.574955 -4.891438 -26.034468 0.000000 0.000000 0.000000 -21.116607 -23.586568 13.018173 -19.696662 -27.486479 -0.436796 21.128782 -36.065842 -5.174102 0.000000 0.000000 0.000000 30.344091 11.955375 5.853866 47.178855 25.269421 3.054946 11.992300 39.061045 6.034114 0.000000 0.000000 0.000000 
-0.018682 0.918257 -0.096604 -4.467187 -15.426437 16.430569 17.462419 3.767903 -31.946833 -8.650386 2.089871 11.688329 13.057854 22.664041 19.185964 0.000000 0.000000 0.000000 -10.934972 2.609314 -33.621535 7.846554 -0.379896 23.852184 -4.287469 -12.932187 3.512275 0.000000 0.000000 0.000000 0.545195 0.346882 38.313638 -4.810728 1.375992 -22.066643 -2.723282 7.692901 24.738144 10.217518 -3.094913 -31.080138 0.000000 0.000000 0.000000 -20.848696 -23.905647 12.758318 -20.388136 -29.385038 -0.118923 21.855415 -33.912481 -5.070103 0.000000 0.000000 0.000000 28.779691 12.518124 6.771060 48.423904 27.514276 4.001052 8.988238 36.045308 4.615451 0.000000 0.000000 0.000000 
-0.034158 0.912593 -0.107386 -3.099026 -12.889971 15.806856 16.988092 3.359653 -33.070536 -7.696076 1.735863 11.735640 11.480943 20.881590 18.710228 0.000000 0.000000 0.000000 -11.903509 2.149961 -34.094422 8.359630 -0.709366 25.544633 -3.849524 -11.025940 1.518024 0.000000 0.000000 0.000000 2.152855 -0.607638 40.956997 -4.796929 1.411594 -22.301896 -3.153280 8.105482 22.952622 12.007651 -3.509234 -31.805050 0.000000 0.000000 0.000000 -20.136573 -24.916442 12.520558 -20.244820 -31.302356 0.326912 21.209244 -31.827718 -4.640776 0.000000 0.000000 0.000000 27.827204 12.542645 7.461350 49.641966 30.880077 5.713631 6.929327 32.597133 3.581927 0.000000 0.000000 0.000000 
-0.053141 0.907557 -0.117953 -1.672855 -10.595852 14.490245 17.034987 2.988970 -33.023090 -7.619591 1.582177 11.075883 9.606759 18.545805 19.708843 0.000000 0.000000 0.000000 -11.798122 1.892422 -34.864350 7.540181 -0.609721 29.118638 -3.662273 -9.982556 0.305897 0.000000 0.000000 0.000000 3.413369 -1.513622 43.190417 -4.656815 1.421804 -23.007862 -3.937499 8.544426 22.770355 13.473933 -3.822308 -32.816453 0.000000 0.000000 0.000000 -19.502697 -26.098756 12.517700 -21.100892 -32.887704 0.777850 22.357654 -31.887065 -5.058271 0.000000 0.000000 0.000000 29.116253 12.887492 8.491175 47.563946 32.259084 5.720484 5.538088 32.670045 3.221901 0.000000 0.000000 0.000000 
-0.074866 0.905723 -0.129052 -0.546723 -8.445714 13.597317 17.908180 2.818617 -32.322580 -7.730795 1.436977 9.447933 7.818310 16.424581 21.462648 0.000000 0.000000 0.000000 -12.085825 1.494515 -34.154124 8.612476 -1.198058 28.871004 -4.414587 -11.264410 -1.298063 0.000000 0.000000 0.000000 4.951703 -2.593256 43.738730 -4.889890 1.522077 -23.051499 -4.268390 8.740714 22.480691 12.936441 -3.271646 -33.503481 0.000000 0.000000 0.000000 -20.538835 -26.833238 12.713456 -20.243186 -33.615440 0.827708 21.529554 -34.231852 -5.272441 0.000000 0.000000 0.000000 27.860319 13.426643 9.148036 46.634762 34.783833 6.549717 4.544657 32.194602 2.901222 0.000000 0.000000 0.000000 
-0.097212 0.905874 -0.140889 0.454824 -6.082898 13.040858 18.677369 2.677294 -32.367515 -7.374708 1.204169 7.698393 6.323517 14.991741 24.871517 0.000000 0.000000 0.000000 -11.975402 1.219669 -34.907736 9.770808 -1.875874 29.667316 -4.914201 -12.692543 -0.671145 0.000000 0.000000 0.000000 6.485007 -3.696572 43.514796 -4.987465 1.582179 -23.531195 -4.762549 8.594046 22.747416 12.810836 -2.996211 -34.120002 0.000000 0.000000 0.000000 -20.896092 -27.806428 13.064003 -20.880411 -34.400448 1.102569 19.745792 -38.171448 -5.353318 0.000000 0.000000 0.000000 26.989056 14.000455 9.687178 44.613660 36.037574 6.535844 2.653806 32.477153 2.390405 0.000000 0.000000 0.000000 
-0.118207 0.908733 -0.152205 1.155085 -5.144664 12.835207 20.181088 2.952170 -32.394880 -7.338729 1.149312 7.163757 5.576440 14.504516 28.601858 0.000000 0.000000 0.000000 -11.679240 1.172661 -35.686874 10.311936 -2.176593 29.552243 -5.942699 -15.414336 0.066079 0.000000 0.000000 0.000000 7.234385 -4.167244 43.118964 -6.092056 1.841377 -24.167266 -4.267130 7.529074 23.513598 10.824957 -2.263157 -33.683082 0.000000 0.000000 0.000000 -21.545886 -27.460692 13.228746 -23.603139 -34.986467 1.651651 18.028673 -44.991848 -5.584880 0.000000 0.000000 0.000000 24.190363 14.488298 9.305585 43.573316 36.993958 6.727332 2.764662 35.147571 2.671943 0.000000 0.000000 0.000000 
